<svg width="28" height="28" viewBox="0 0 28 28" fill="none" xmlns="http://www.w3.org/2000/svg">
<path d="M19.5416 4.15334V2.33334C19.5416 1.85501 19.145 1.45834 18.6666 1.45834C18.1883 1.45834 17.7916 1.85501 17.7916 2.33334V4.08334H10.2083V2.33334C10.2083 1.85501 9.81165 1.45834 9.33332 1.45834C8.85498 1.45834 8.45832 1.85501 8.45832 2.33334V4.15334C5.30832 4.44501 3.77998 6.32334 3.54665 9.11168C3.52332 9.45001 3.80332 9.73001 4.12998 9.73001H23.87C24.2083 9.73001 24.4883 9.43834 24.4533 9.11168C24.22 6.32334 22.6916 4.44501 19.5416 4.15334Z" fill="white"/>
<path d="M23.3333 11.48H4.66667C4.025 11.48 3.5 12.005 3.5 12.6467V19.8334C3.5 23.3334 5.25 25.6667 9.33333 25.6667H18.6667C22.75 25.6667 24.5 23.3334 24.5 19.8334V12.6467C24.5 12.005 23.975 11.48 23.3333 11.48ZM10.745 21.245C10.6867 21.2917 10.6283 21.35 10.57 21.385C10.5 21.4317 10.43 21.4667 10.36 21.49C10.29 21.525 10.22 21.5484 10.15 21.56C10.0683 21.5717 9.99833 21.5834 9.91667 21.5834C9.765 21.5834 9.61333 21.5484 9.47333 21.49C9.32167 21.4317 9.205 21.35 9.08833 21.245C8.87833 21.0234 8.75 20.72 8.75 20.4167C8.75 20.1134 8.87833 19.81 9.08833 19.5884C9.205 19.4834 9.32167 19.4017 9.47333 19.3434C9.68333 19.25 9.91667 19.2267 10.15 19.2734C10.22 19.285 10.29 19.3084 10.36 19.3434C10.43 19.3667 10.5 19.4017 10.57 19.4484C10.6283 19.495 10.6867 19.5417 10.745 19.5884C10.955 19.81 11.0833 20.1134 11.0833 20.4167C11.0833 20.72 10.955 21.0234 10.745 21.245ZM10.745 17.1617C10.5233 17.3717 10.22 17.5 9.91667 17.5C9.61333 17.5 9.31 17.3717 9.08833 17.1617C8.87833 16.94 8.75 16.6367 8.75 16.3334C8.75 16.03 8.87833 15.7267 9.08833 15.505C9.415 15.1784 9.92833 15.0734 10.36 15.26C10.5117 15.3184 10.64 15.4 10.745 15.505C10.955 15.7267 11.0833 16.03 11.0833 16.3334C11.0833 16.6367 10.955 16.94 10.745 17.1617ZM14.8283 21.245C14.6067 21.455 14.3033 21.5834 14 21.5834C13.6967 21.5834 13.3933 21.455 13.1717 21.245C12.9617 21.0234 12.8333 20.72 12.8333 20.4167C12.8333 20.1134 12.9617 19.81 13.1717 19.5884C13.6033 19.1567 14.3967 19.1567 14.8283 19.5884C15.0383 19.81 15.1667 20.1134 15.1667 20.4167C15.1667 20.72 15.0383 21.0234 14.8283 21.245ZM14.8283 17.1617C14.77 17.2084 14.7117 17.255 14.6533 17.3017C14.5833 17.3484 14.5133 17.3834 14.4433 17.4067C14.3733 17.4417 14.3033 17.465 14.2333 17.4767C14.1517 17.4884 14.0817 17.5 14 17.5C13.6967 17.5 13.3933 17.3717 13.1717 17.1617C12.9617 16.94 12.8333 16.6367 12.8333 16.3334C12.8333 16.03 12.9617 15.7267 13.1717 15.505C13.2767 15.4 13.405 15.3184 13.5567 15.26C13.9883 15.0734 14.5017 15.1784 14.8283 15.505C15.0383 15.7267 15.1667 16.03 15.1667 16.3334C15.1667 16.6367 15.0383 16.94 14.8283 17.1617ZM18.9117 21.245C18.69 21.455 18.3867 21.5834 18.0833 21.5834C17.78 21.5834 17.4767 21.455 17.255 21.245C17.045 21.0234 16.9167 20.72 16.9167 20.4167C16.9167 20.1134 17.045 19.81 17.255 19.5884C17.6867 19.1567 18.48 19.1567 18.9117 19.5884C19.1217 19.81 19.25 20.1134 19.25 20.4167C19.25 20.72 19.1217 21.0234 18.9117 21.245ZM18.9117 17.1617C18.8533 17.2084 18.795 17.255 18.7367 17.3017C18.6667 17.3484 18.5967 17.3834 18.5267 17.4067C18.4567 17.4417 18.3867 17.465 18.3167 17.4767C18.235 17.4884 18.1533 17.5 18.0833 17.5C17.78 17.5 17.4767 17.3717 17.255 17.1617C17.045 16.94 16.9167 16.6367 16.9167 16.3334C16.9167 16.03 17.045 15.7267 17.255 15.505C17.3717 15.4 17.4883 15.3184 17.64 15.26C17.85 15.1667 18.0833 15.1434 18.3167 15.19C18.3867 15.2017 18.4567 15.225 18.5267 15.26C18.5967 15.2834 18.6667 15.3184 18.7367 15.365C18.795 15.4117 18.8533 15.4584 18.9117 15.505C19.1217 15.7267 19.25 16.03 19.25 16.3334C19.25 16.6367 19.1217 16.94 18.9117 17.1617Z" fill="white"/>
</svg>
