<svg width="28" height="28" viewBox="0 0 28 28" fill="none" xmlns="http://www.w3.org/2000/svg">
<path d="M23.38 7.95667L16.66 3.255C14.8283 1.97167 12.0167 2.04167 10.255 3.40667L4.40999 7.96833C3.24332 8.87833 2.32166 10.745 2.32166 12.215V20.265C2.32166 23.24 4.73665 25.6667 7.71166 25.6667H20.2883C23.2633 25.6667 25.6783 23.2517 25.6783 20.2767V12.3667C25.6783 10.7917 24.6633 8.855 23.38 7.95667ZM14.875 21C14.875 21.4783 14.4783 21.875 14 21.875C13.5217 21.875 13.125 21.4783 13.125 21V17.5C13.125 17.0217 13.5217 16.625 14 16.625C14.4783 16.625 14.875 17.0217 14.875 17.5V21Z" fill="white"/>
</svg>
