<svg width="28" height="28" viewBox="0 0 28 28" fill="none" xmlns="http://www.w3.org/2000/svg">
<path d="M23.45 10.7567C21.3383 10.7567 20.475 9.2634 21.525 7.43173C22.1316 6.37007 21.77 5.01673 20.7083 4.41007L18.69 3.25507C17.7683 2.70673 16.5783 3.0334 16.03 3.95507L15.9016 4.17673C14.8516 6.0084 13.125 6.0084 12.0633 4.17673L11.935 3.95507C11.41 3.0334 10.22 2.70673 9.29831 3.25507L7.27998 4.41007C6.21831 5.01673 5.85665 6.38173 6.46331 7.4434C7.52498 9.2634 6.66165 10.7567 4.54998 10.7567C3.33665 10.7567 2.33331 11.7484 2.33331 12.9734V15.0267C2.33331 16.2401 3.32498 17.2434 4.54998 17.2434C6.66165 17.2434 7.52498 18.7367 6.46331 20.5684C5.85665 21.6301 6.21831 22.9834 7.27998 23.5901L9.29831 24.7451C10.22 25.2934 11.41 24.9667 11.9583 24.0451L12.0866 23.8234C13.1366 21.9917 14.8633 21.9917 15.925 23.8234L16.0533 24.0451C16.6016 24.9667 17.7916 25.2934 18.7133 24.7451L20.7316 23.5901C21.7933 22.9834 22.155 21.6184 21.5483 20.5684C20.4866 18.7367 21.35 17.2434 23.4616 17.2434C24.675 17.2434 25.6783 16.2517 25.6783 15.0267V12.9734C25.6666 11.7601 24.675 10.7567 23.45 10.7567ZM14 17.7917C11.9116 17.7917 10.2083 16.0884 10.2083 14.0001C10.2083 11.9117 11.9116 10.2084 14 10.2084C16.0883 10.2084 17.7916 11.9117 17.7916 14.0001C17.7916 16.0884 16.0883 17.7917 14 17.7917Z" fill="white"/>
</svg>
