<svg width="28" height="28" viewBox="0 0 28 28" fill="none" xmlns="http://www.w3.org/2000/svg">
<path d="M19.8333 4.08334H8.16665C4.66665 4.08334 2.33331 5.83334 2.33331 9.91667V18.0833C2.33331 22.1667 4.66665 23.9167 8.16665 23.9167H19.8333C23.3333 23.9167 25.6666 22.1667 25.6666 18.0833V9.91667C25.6666 5.83334 23.3333 4.08334 19.8333 4.08334ZM20.3816 11.1883L16.73 14.105C15.96 14.7233 14.98 15.0267 14 15.0267C13.02 15.0267 12.0283 14.7233 11.27 14.105L7.61831 11.1883C7.24498 10.885 7.18665 10.325 7.47831 9.95167C7.78165 9.57834 8.32998 9.50834 8.70331 9.81167L12.355 12.7283C13.2416 13.44 14.7466 13.44 15.6333 12.7283L19.285 9.81167C19.6583 9.50834 20.2183 9.56667 20.51 9.95167C20.8133 10.325 20.755 10.885 20.3816 11.1883Z" fill="white"/>
</svg>
